<svg width="46" height="46" viewBox="0 0 46 46" fill="none" xmlns="http://www.w3.org/2000/svg">
<path d="M23 0.92749C10.8169 0.92749 0.919983 10.8244 0.919983 23.0075C0.919983 35.1906 10.8169 45.0875 23 45.0875C35.1831 45.0875 45.08 35.1906 45.08 23.0075C45.08 10.8244 35.1831 0.92749 23 0.92749ZM23 2.84749C34.1454 2.84749 43.16 11.8621 43.16 23.0075C43.16 28.5109 40.9558 33.4888 37.3887 37.1244C35.6321 35.8348 33.4909 35.1877 31.6775 34.5425C30.6562 34.1791 29.7379 33.819 29.0675 33.4175C28.4254 33.033 28.0689 32.6379 27.8806 32.1837C27.7924 31.0828 27.8103 30.1964 27.8169 29.15C27.9332 29.0342 28.0824 28.9528 28.2012 28.8125C28.4815 28.4816 28.7669 28.0796 29.0394 27.6275C29.5065 26.8522 29.8464 25.9039 30.0369 24.9425C30.3277 24.7942 30.6384 24.7621 30.875 24.4606C31.3118 23.9039 31.6066 23.1205 31.7375 22.0287C31.8535 21.0649 31.543 20.4019 31.1431 19.8931C31.5733 18.4869 32.1059 16.2506 31.925 13.9362C31.8255 12.663 31.5051 11.3814 30.7344 10.3156C29.9985 9.29813 28.8039 8.56674 27.275 8.30187C26.3039 7.19933 24.7613 6.67999 22.9175 6.67999H22.9081H22.9006C18.77 6.75582 16.1048 8.46544 14.9637 11.0731C13.8787 13.5528 14.1119 16.6398 14.8906 19.8537C14.472 20.3626 14.1441 21.0382 14.2625 22.0287C14.3939 23.1201 14.6885 23.9039 15.125 24.4606C15.3614 24.7622 15.6721 24.7941 15.9631 24.9425C16.1535 25.9032 16.4935 26.8502 16.9606 27.6256C17.233 28.0779 17.5181 28.4795 17.7987 28.8106C17.9176 28.9509 18.0667 29.0341 18.1831 29.15C18.1893 30.1958 18.2071 31.0819 18.1194 32.1837C17.9315 32.6362 17.5754 33.0315 16.9344 33.4175C16.265 33.8205 15.3478 34.1826 14.3281 34.5481C12.5166 35.1974 10.3766 35.8491 8.61498 37.1281C5.04571 33.4922 2.83998 28.5128 2.83998 23.0075C2.83998 11.8621 11.8546 2.84749 23 2.84749ZM22.925 8.60187C24.6953 8.60369 25.8092 9.12786 26.1144 9.66312L26.3487 10.0737L26.8156 10.1375C28.0215 10.3051 28.6953 10.773 29.1781 11.4406C29.6609 12.1082 29.9288 13.0399 30.0106 14.0862C30.1742 16.1789 29.5751 18.6501 29.195 19.7937L28.9531 20.5194L29.6075 20.9169C29.5409 20.8763 29.9151 21.0979 29.8306 21.8C29.7282 22.6542 29.5099 23.0893 29.3637 23.2756C29.2175 23.4619 29.155 23.4381 29.1706 23.4369L28.3794 23.5025L28.295 24.2919C28.2226 24.9701 27.8411 25.8952 27.395 26.6356C27.1719 27.0058 26.9346 27.3357 26.735 27.5712C26.5354 27.8068 26.3228 27.9527 26.4031 27.9106L25.8894 28.1787V28.76C25.8894 30.0313 25.8376 31.071 25.9719 32.5512L25.9831 32.6787L26.0281 32.7987C26.4059 33.8154 27.1945 34.5327 28.0812 35.0637C28.968 35.5948 29.9853 35.9786 31.0344 36.3519C32.7633 36.9671 34.5655 37.5725 35.9394 38.4669C32.4389 41.3988 27.9301 43.1675 23 43.1675C18.0717 43.1675 13.5642 41.4005 10.0644 38.4706C11.446 37.5813 13.2509 36.9742 14.9769 36.3556C16.0252 35.9799 17.0399 35.5944 17.9244 35.0619C18.8088 34.5293 19.5946 33.8121 19.9719 32.7987L20.0169 32.6787L20.0281 32.5512C20.1613 31.0721 20.1106 30.0323 20.1106 28.76V28.1787L19.5969 27.9087C19.6773 27.9508 19.4646 27.805 19.265 27.5694C19.0653 27.3338 18.8281 27.006 18.605 26.6356C18.1588 25.8949 17.7774 24.9691 17.705 24.2919L17.6206 23.5025L16.8294 23.4369C16.8442 23.4381 16.7823 23.4619 16.6362 23.2756C16.4902 23.0893 16.2722 22.6546 16.1694 21.8C16.0854 21.0977 16.4639 20.8735 16.3925 20.9169L17.0019 20.5475L16.8237 19.8556C15.9977 16.6764 15.8728 13.7836 16.7225 11.8419C17.5713 9.90202 19.2717 8.67131 22.925 8.60187Z" fill="#F8B195"/>
</svg>
